# This file uses centimeters as units for non-parametric coordinates.

mtllib cell2.mtl
g default
v -31.990560 -88.273071 23.405603
v 31.190134 -88.273071 23.501635
v -31.990560 14.688509 23.405603
v 31.190134 14.688509 23.501635
v -31.920828 14.688509 -22.475073
v 31.259867 14.688509 -22.379049
v -31.920828 -88.273071 -22.475073
v 31.259867 -88.273071 -22.379049
v -6.718282 14.688509 23.444017
v -6.648550 14.688509 -22.436666
v 5.987589 14.688509 -22.417456
v 5.917857 14.688509 23.463221
v -19.369054 14.688509 23.436335
v -19.299322 14.688509 -22.444342
v -19.369054 24.143436 23.436335
v -6.718282 24.143436 23.444017
v -6.648550 24.143436 -22.436666
v -19.299322 24.143436 -22.444342
v 5.987589 37.148453 -22.417456
v 5.917857 37.148453 23.463221
v -6.648550 37.148453 -22.436666
v -6.718282 37.148453 23.444017
vt 0.307262 0.602871
vt 0.487609 0.602871
vt 0.307262 0.638285
vt 0.487609 0.713540
vt 0.307262 0.647139
vt 0.307262 0.669272
vt 0.307262 0.713539
vt 0.567975 0.893888
vt 0.567975 0.938154
vt 0.487609 0.893888
vt 0.487609 0.938155
vt 0.567975 0.713540
vt 0.567975 0.602871
vt 0.748323 0.713539
vt 0.748323 0.669272
vt 0.748323 0.647139
vt 0.748323 0.638285
vt 0.748323 0.602871
vt 0.567975 0.422523
vt 0.487609 0.422523
vt 0.567975 0.387109
vt 0.487609 0.387109
vt 0.567975 0.986662
vt 0.487609 0.986662
vt 0.567975 0.977810
vt 0.487609 0.977810
vt 0.487609 0.972052
vt 0.487609 0.949917
vt 0.567975 0.972052
vt 0.567975 0.949917
vt 0.481606 0.986660
vt 0.481606 0.977810
vt 0.573979 0.977810
vt 0.573979 0.986660
vt 0.567975 0.992666
vt 0.487609 0.992666
vt 0.579737 0.949917
vt 0.573734 0.972052
vt 0.579737 0.972052
vt 0.475847 0.972052
vt 0.475847 0.949917
vt 0.481852 0.972052
vn -0.001520 0.000000 0.999999
vn -0.001520 0.000000 0.999999
vn -0.001520 0.000000 0.999999
vn -0.001520 0.000000 0.999999
vn -0.001520 0.000000 0.999999
vn -0.001520 0.000000 0.999999
vn -0.001520 0.000000 0.999999
vn -0.001520 0.000000 0.999999
vn -0.001520 0.000000 0.999999
vn -0.001520 0.000000 0.999999
vn -0.001520 0.000000 0.999999
vn -0.001520 0.000000 0.999999
vn -0.001520 0.000000 0.999999
vn -0.001520 0.000000 0.999999
vn -0.001520 0.000000 0.999999
vn 0.000000 1.000000 0.000000
vn 0.000000 1.000000 0.000000
vn 0.000000 1.000000 0.000000
vn 0.000000 1.000000 0.000000
vn 0.000000 1.000000 0.000000
vn 0.000000 1.000000 0.000000
vn 0.001520 0.000000 -0.999999
vn 0.001520 0.000000 -0.999999
vn 0.001520 0.000000 -0.999999
vn 0.001520 0.000000 -0.999999
vn 0.001520 0.000000 -0.999999
vn 0.001520 0.000000 -0.999999
vn 0.001520 0.000000 -0.999999
vn 0.001520 0.000000 -0.999999
vn 0.001520 0.000000 -0.999999
vn 0.001520 0.000000 -0.999999
vn 0.001520 0.000000 -0.999999
vn 0.001520 0.000000 -0.999999
vn 0.001520 0.000000 -0.999999
vn 0.001520 0.000000 -0.999999
vn 0.001520 0.000000 -0.999999
vn 0.000000 -1.000000 0.000000
vn 0.000000 -1.000000 0.000000
vn 0.000000 -1.000000 0.000000
vn 0.000000 -1.000000 0.000000
vn 0.000000 -1.000000 0.000000
vn 0.000000 -1.000000 0.000000
vn 0.999999 0.000000 0.001520
vn 0.999999 0.000000 0.001520
vn 0.999999 0.000000 0.001520
vn 0.999999 0.000000 0.001520
vn 0.999999 0.000000 0.001520
vn 0.999999 0.000000 0.001520
vn -0.999999 0.000000 -0.001520
vn -0.999999 0.000000 -0.001520
vn -0.999999 0.000000 -0.001520
vn -0.999999 0.000000 -0.001520
vn -0.999999 0.000000 -0.001520
vn -0.999999 0.000000 -0.001520
vn 0.000000 1.000000 0.000000
vn 0.000000 1.000000 0.000000
vn 0.000000 1.000000 0.000000
vn 0.000000 1.000000 0.000000
vn 0.000000 1.000000 0.000000
vn 0.000000 1.000000 0.000000
vn 0.000000 1.000000 0.000000
vn 0.000000 1.000000 0.000000
vn 0.000000 1.000000 0.000000
vn 0.000000 1.000000 0.000000
vn 0.000000 1.000000 0.000000
vn 0.000000 1.000000 0.000000
vn 0.000000 1.000000 0.000000
vn 0.000000 1.000000 0.000000
vn 0.000000 1.000000 0.000000
vn 0.000000 1.000000 0.000000
vn 0.000000 1.000000 0.000000
vn 0.000000 1.000000 0.000000
vn -0.001520 0.000000 0.999999
vn -0.001520 0.000000 0.999999
vn -0.001520 0.000000 0.999999
vn -0.001520 0.000000 0.999999
vn -0.001520 0.000000 0.999999
vn -0.001520 0.000000 0.999999
vn 0.001520 0.000000 -0.999999
vn 0.001520 0.000000 -0.999999
vn 0.001518 0.000000 -0.999999
vn 0.001518 0.000000 -0.999999
vn 0.001520 0.000000 -0.999999
vn 0.001520 0.000000 -0.999999
vn -0.999999 0.000000 -0.001520
vn -0.999999 0.000000 -0.001520
vn -0.999999 0.000000 -0.001520
vn -0.999999 0.000000 -0.001520
vn -0.999999 0.000000 -0.001520
vn -0.999999 0.000000 -0.001520
vn 0.999999 0.000000 0.001520
vn 0.999999 0.000000 0.001520
vn 0.999999 0.000000 0.001520
vn 0.999999 0.000000 0.001520
vn 0.999999 0.000000 0.001520
vn 0.999999 0.000000 0.001520
vn 0.001520 0.000000 -0.999999
vn 0.001520 0.000000 -0.999999
vn 0.001520 0.000000 -0.999999
vn 0.001520 0.000000 -0.999999
vn 0.001520 0.000000 -0.999999
vn 0.001520 0.000000 -0.999999
vn 0.001520 0.000000 -0.999999
vn 0.001520 0.000000 -0.999999
vn 0.001520 0.000000 -0.999999
vn -0.999999 0.000000 -0.001520
vn -0.999999 0.000000 -0.001520
vn -0.999999 0.000000 -0.001520
vn -0.999999 0.000000 -0.001520
vn -0.999999 0.000000 -0.001520
vn -0.999999 0.000000 -0.001520
vn -0.001520 0.000000 0.999999
vn -0.001520 0.000000 0.999999
vn -0.001520 0.000000 0.999999
vn -0.001520 0.000000 0.999999
vn -0.001520 0.000000 0.999999
vn -0.001520 0.000000 0.999999
vn -0.001520 0.000000 0.999999
vn -0.001520 0.000000 0.999999
vn -0.001520 0.000000 0.999999
s off
g cell5:pasted__pCube9
usemtl cell5:initialShadingGroup
f 3/1/1 1/2/2 13/3/3
f 1/2/4 2/4/5 13/3/6
f 13/3/7 2/4/8 9/5/9
f 9/5/10 2/4/11 12/6/12
f 12/6/13 2/4/14 4/7/15
f 6/8/16 11/9/17 4/10/18
f 4/10/19 11/9/20 12/11/21
f 8/12/22 7/13/23 6/14/24
f 6/14/25 7/13/26 11/15/27
f 11/15/28 7/13/29 10/16/30
f 10/16/31 7/13/32 14/17/33
f 7/13/34 5/18/35 14/17/36
f 1/2/37 7/13/38 2/4/39
f 2/4/40 7/13/41 8/12/42
f 4/10/43 2/4/44 6/8/45
f 6/8/46 2/4/47 8/12/48
f 5/19/49 7/13/50 3/20/51
f 3/20/52 7/13/53 1/2/54
f 5/19/55 3/20/56 14/21/57
f 14/21/58 3/20/59 13/22/60
f 18/23/61 15/24/62 17/25/63
f 17/25/64 15/24/65 16/26/66
f 22/27/67 20/28/68 21/29/69
f 21/29/70 20/28/71 19/30/72
f 15/24/73 13/31/74 16/26/75
f 16/26/76 13/31/77 9/32/78
f 17/25/79 10/33/80 18/23/81
f 18/23/82 10/33/83 14/34/84
f 18/23/85 14/35/86 15/24/87
f 15/24/88 14/35/89 13/36/90
f 20/28/91 12/11/92 19/30/93
f 19/30/94 12/11/95 11/9/96
f 19/30/97 11/37/98 21/29/99
f 21/29/100 11/37/101 17/38/102
f 11/37/103 10/39/104 17/38/105
f 21/29/106 17/25/107 22/27/108
f 22/27/109 17/25/110 16/26/111
f 9/40/112 12/41/113 16/42/114
f 12/41/115 20/28/116 16/42/117
f 20/28/118 22/27/119 16/42/120
