# This file uses centimeters as units for non-parametric coordinates.

mtllib cell.mtl
g default
v -17.898031 -26.595523 60.896850
v 13.504912 -26.595523 60.896850
v -17.898030 -26.595528 -14.275286
v 13.504906 -26.595525 -14.275286
v -17.898030 3.541578 124.950993
v 13.504906 3.541578 124.950993
v -17.800992 -4.614998 206.715370
v 13.601944 -4.614998 206.715370
v -17.599278 -25.362113 239.372803
v 13.803658 -25.362113 239.372803
v -17.599278 12.790448 335.183896
v 13.803658 12.790448 335.183896
v -17.599278 4.409633 429.318313
v 13.803658 4.409633 429.318313
v -17.599278 25.267587 432.333052
v 13.803658 25.267587 432.333052
v -17.599278 21.950282 469.593274
v 13.803658 21.950282 469.593274
v -17.599278 -55.826370 462.619289
v 13.803658 -55.826370 462.619289
v -17.599278 -78.158517 713.455147
v 13.803658 -78.158517 713.455147
vt 0.000000 0.000000
vt 0.959033 0.000000
vt 0.000000 1.000000
vt 0.959033 1.000000
vt 0.000000 0.000000
vt 1.000000 0.000000
vt 1.000000 1.000000
vt 0.000000 1.000000
vt 0.000000 0.000000
vt 1.000000 0.000000
vt 1.000000 1.000000
vt 0.000000 1.000000
vt 0.000000 0.000000
vt 1.000000 0.000000
vt 1.000000 1.000000
vt 0.000000 1.000000
vt 0.000000 0.000000
vt 1.000000 0.000000
vt 1.000000 1.000000
vt 0.000000 1.000000
vt 0.000000 0.000000
vt 1.000000 0.000000
vt 1.000000 1.000000
vt 0.000000 1.000000
vt 0.000000 0.000000
vt 1.000000 0.000000
vt 1.000000 1.000000
vt 0.000000 1.000000
vt 0.000000 0.000000
vt 1.000000 0.000000
vt 1.000000 1.000000
vt 0.000000 1.000000
vt 0.000000 0.000000
vt 1.000000 0.000000
vt 1.000000 1.000000
vt 0.000000 1.000000
vn 0.000000 0.977365 -0.211562
vn -0.000000 0.977365 -0.211562
vn -0.000000 1.000000 -0.000000
vn -0.000000 1.000000 -0.000000
vn 0.000000 0.988842 -0.148965
vn 0.000000 0.988815 -0.149145
vn 0.000000 0.995061 0.099264
vn 0.000000 0.995061 0.099264
vn 0.000000 0.929050 -0.369954
vn 0.000000 0.929050 -0.369953
vn 0.000000 0.929050 -0.369953
vn 0.000000 0.929050 -0.369953
vn 0.000000 0.996060 0.088680
vn 0.000000 0.996060 0.088680
vn 0.000000 0.996060 0.088680
vn 0.000000 0.996060 0.088680
vn 0.000000 0.143050 -0.989715
vn 0.000000 0.143050 -0.989715
vn 0.000000 0.143050 -0.989715
vn 0.000000 0.143050 -0.989715
vn 0.000000 0.996060 0.088680
vn 0.000000 0.996060 0.088680
vn 0.000000 0.996060 0.088680
vn 0.000000 0.996060 0.088680
vn 0.000000 -0.089309 0.996004
vn 0.000000 -0.089309 0.996004
vn 0.000000 -0.089309 0.996004
vn 0.000000 -0.089309 0.996004
vn 0.000000 0.996060 0.088680
vn 0.000000 0.996060 0.088680
vn 0.000000 0.996060 0.088680
vn 0.000000 0.996060 0.088680
s 1
g pPlane1
usemtl initialShadingGroup
f 1/1/1 2/2/2 3/3/3
f 3/3/3 2/2/2 4/4/4
f 2/5/2 1/6/1 6/8/5
f 6/8/5 1/6/1 5/7/6
f 5/10/6 7/11/7 6/9/5
f 6/9/5 7/11/7 8/12/8
s 2
f 10/13/9 9/14/10 12/16/11
f 12/16/11 9/14/10 11/15/12
s 3
f 12/17/13 11/18/14 14/20/15
f 14/20/15 11/18/14 13/19/16
s 4
f 14/21/17 13/22/18 16/24/19
f 16/24/19 13/22/18 15/23/20
s 5
f 16/25/21 15/26/22 18/28/23
f 18/28/23 15/26/22 17/27/24
s 6
f 18/29/25 17/30/26 20/32/27
f 20/32/27 17/30/26 19/31/28
s 7
f 20/33/29 19/34/30 22/36/31
f 22/36/31 19/34/30 21/35/32
