# This file uses centimeters as units for non-parametric coordinates.

mtllib cone.mtl
g default
v 0.915402 0.014467 2.072254
v 0.846206 0.014467 1.936449
v 0.738430 0.014467 1.828674
v 0.602625 0.014467 1.759478
v 0.452085 0.014467 1.735635
v 0.301544 0.014467 1.759478
v 0.165739 0.014467 1.828674
v 0.057964 0.014467 1.936450
v -0.011232 0.014467 2.072254
v -0.035075 0.014467 2.222795
v -0.011232 0.014467 2.373336
v 0.057964 0.014467 2.509140
v 0.165739 0.014467 2.616916
v 0.301544 0.014467 2.686112
v 0.452085 0.014467 2.709955
v 0.602625 0.014467 2.686112
v 0.738430 0.014467 2.616916
v 0.846205 0.014467 2.509140
v 0.915401 0.014467 2.373336
v 0.939245 0.014467 2.222795
v 0.452085 1.658355 2.222795
vt 0.737764 0.172746
vt 0.750000 0.250000
vt 0.737764 0.327254
vt 0.702254 0.396946
vt 0.646946 0.452254
vt 0.577254 0.487764
vt 0.500000 0.500000
vt 0.422746 0.487764
vt 0.353054 0.452254
vt 0.297746 0.396946
vt 0.262236 0.327254
vt 0.250000 0.250000
vt 0.262236 0.172746
vt 0.297746 0.103054
vt 0.353054 0.047746
vt 0.422746 0.012236
vt 0.500000 -0.000000
vt 0.577254 0.012236
vt 0.646946 0.047746
vt 0.702254 0.103054
vt 0.250000 0.500000
vt 0.275000 0.500000
vt 0.500000 1.000000
vt 0.300000 0.500000
vt 0.325000 0.500000
vt 0.350000 0.500000
vt 0.375000 0.500000
vt 0.400000 0.500000
vt 0.425000 0.500000
vt 0.450000 0.500000
vt 0.475000 0.500000
vt 0.500000 0.500000
vt 0.525000 0.500000
vt 0.550000 0.500000
vt 0.575000 0.500000
vt 0.600000 0.500000
vt 0.625000 0.500000
vt 0.650000 0.500000
vt 0.675000 0.500000
vt 0.700000 0.500000
vt 0.725000 0.500000
vt 0.750000 0.500000
vn 0.000000 -1.000000 0.000000
vn 0.000000 -1.000000 0.000000
vn 0.000000 -1.000000 0.000000
vn 0.000000 -1.000000 0.000000
vn 0.000000 -1.000000 0.000000
vn 0.000000 -1.000000 0.000000
vn 0.000000 -1.000000 0.000000
vn 0.000000 -1.000000 0.000000
vn 0.000000 -1.000000 0.000000
vn 0.000000 -1.000000 0.000000
vn 0.000000 -1.000000 0.000000
vn 0.000000 -1.000000 0.000000
vn 0.000000 -1.000000 0.000000
vn 0.000000 -1.000000 0.000000
vn 0.000000 -1.000000 0.000000
vn 0.000000 -1.000000 0.000000
vn 0.000000 -1.000000 0.000000
vn 0.000000 -1.000000 0.000000
vn 0.000000 -1.000000 0.000000
vn 0.000000 -1.000000 0.000000
vn 0.911859 0.284132 -0.296280
vn 0.775673 0.284132 -0.563560
vn 0.000002 1.000000 0.000001
vn 0.775673 0.284132 -0.563560
vn 0.563560 0.284132 -0.775674
vn 0.000002 1.000000 0.000001
vn 0.563560 0.284132 -0.775674
vn 0.296281 0.284132 -0.911859
vn 0.000002 1.000000 0.000001
vn 0.296281 0.284132 -0.911859
vn 0.000000 0.284132 -0.958785
vn 0.000002 1.000000 0.000001
vn 0.000000 0.284132 -0.958785
vn -0.296281 0.284132 -0.911859
vn 0.000002 1.000000 0.000001
vn -0.296281 0.284132 -0.911859
vn -0.563560 0.284132 -0.775673
vn 0.000002 1.000000 0.000001
vn -0.563560 0.284132 -0.775673
vn -0.775674 0.284132 -0.563560
vn 0.000002 1.000000 0.000001
vn -0.775674 0.284132 -0.563560
vn -0.911859 0.284132 -0.296281
vn 0.000002 1.000000 0.000001
vn -0.911859 0.284132 -0.296281
vn -0.958785 0.284132 0.000000
vn 0.000002 1.000000 0.000001
vn -0.958785 0.284132 0.000000
vn -0.911859 0.284132 0.296281
vn 0.000002 1.000000 0.000001
vn -0.911859 0.284132 0.296281
vn -0.775673 0.284132 0.563560
vn 0.000002 1.000000 0.000001
vn -0.775673 0.284132 0.563560
vn -0.563560 0.284132 0.775674
vn 0.000002 1.000000 0.000001
vn -0.563560 0.284132 0.775674
vn -0.296281 0.284132 0.911859
vn 0.000002 1.000000 0.000001
vn -0.296281 0.284132 0.911859
vn 0.000000 0.284132 0.958785
vn 0.000002 1.000000 0.000001
vn 0.000000 0.284132 0.958785
vn 0.296281 0.284132 0.911859
vn 0.000002 1.000000 0.000001
vn 0.296281 0.284132 0.911859
vn 0.563560 0.284132 0.775673
vn 0.000002 1.000000 0.000001
vn 0.563560 0.284132 0.775673
vn 0.775673 0.284132 0.563560
vn 0.000002 1.000000 0.000001
vn 0.775673 0.284132 0.563560
vn 0.911859 0.284132 0.296281
vn 0.000002 1.000000 0.000001
vn 0.911859 0.284132 0.296281
vn 0.958785 0.284132 0.000001
vn 0.000002 1.000000 0.000001
vn 0.958785 0.284132 0.000001
vn 0.911859 0.284132 -0.296280
vn 0.000002 1.000000 0.000001
s 1
g cone:pCone1
usemtl initialShadingGroup
f 1/1/1 20/2/2 2/20/3
f 20/2/2 19/3/4 2/20/3
f 19/3/4 18/4/5 2/20/3
f 18/4/5 17/5/6 2/20/3
f 17/5/6 16/6/7 2/20/3
f 16/6/7 15/7/8 2/20/3
f 15/7/8 14/8/9 2/20/3
f 14/8/9 13/9/10 2/20/3
f 13/9/10 12/10/11 2/20/3
f 12/10/11 11/11/12 2/20/3
f 11/11/12 10/12/13 2/20/3
f 10/12/13 9/13/14 2/20/3
f 9/13/14 8/14/15 2/20/3
f 8/14/15 7/15/16 2/20/3
f 7/15/16 6/16/17 2/20/3
f 6/16/17 5/17/18 2/20/3
f 5/17/18 4/18/19 2/20/3
f 4/18/19 3/19/20 2/20/3
s off
f 1/21/21 2/22/22 21/23/23
f 2/22/24 3/24/25 21/23/26
f 3/24/27 4/25/28 21/23/29
f 4/25/30 5/26/31 21/23/32
f 5/26/33 6/27/34 21/23/35
f 6/27/36 7/28/37 21/23/38
f 7/28/39 8/29/40 21/23/41
f 8/29/42 9/30/43 21/23/44
f 9/30/45 10/31/46 21/23/47
f 10/31/48 11/32/49 21/23/50
f 11/32/51 12/33/52 21/23/53
f 12/33/54 13/34/55 21/23/56
f 13/34/57 14/35/58 21/23/59
f 14/35/60 15/36/61 21/23/62
f 15/36/63 16/37/64 21/23/65
f 16/37/66 17/38/67 21/23/68
f 17/38/69 18/39/70 21/23/71
f 18/39/72 19/40/73 21/23/74
f 19/40/75 20/41/76 21/23/77
f 20/41/78 1/42/79 21/23/80
g default
v 0.915402 0.014467 2.072254
v 0.846206 0.014467 1.936449
v 0.738430 0.014467 1.828674
v 0.602625 0.014467 1.759478
v 0.452085 0.014467 1.735635
v 0.301544 0.014467 1.759478
v 0.165739 0.014467 1.828674
v 0.057964 0.014467 1.936450
v -0.011232 0.014467 2.072254
v -0.035075 0.014467 2.222795
v -0.011232 0.014467 2.373336
v 0.057964 0.014467 2.509140
v 0.165739 0.014467 2.616916
v 0.301544 0.014467 2.686112
v 0.452085 0.014467 2.709955
v 0.602625 0.014467 2.686112
v 0.738430 0.014467 2.616916
v 0.846205 0.014467 2.509140
v 0.915401 0.014467 2.373336
v 0.939245 0.014467 2.222795
v 0.452085 1.658355 2.222795
vt 0.737764 0.172746
vt 0.750000 0.250000
vt 0.737764 0.327254
vt 0.702254 0.396946
vt 0.646946 0.452254
vt 0.577254 0.487764
vt 0.500000 0.500000
vt 0.422746 0.487764
vt 0.353054 0.452254
vt 0.297746 0.396946
vt 0.262236 0.327254
vt 0.250000 0.250000
vt 0.262236 0.172746
vt 0.297746 0.103054
vt 0.353054 0.047746
vt 0.422746 0.012236
vt 0.500000 -0.000000
vt 0.577254 0.012236
vt 0.646946 0.047746
vt 0.702254 0.103054
vt 0.250000 0.500000
vt 0.275000 0.500000
vt 0.500000 1.000000
vt 0.300000 0.500000
vt 0.325000 0.500000
vt 0.350000 0.500000
vt 0.375000 0.500000
vt 0.400000 0.500000
vt 0.425000 0.500000
vt 0.450000 0.500000
vt 0.475000 0.500000
vt 0.500000 0.500000
vt 0.525000 0.500000
vt 0.550000 0.500000
vt 0.575000 0.500000
vt 0.600000 0.500000
vt 0.625000 0.500000
vt 0.650000 0.500000
vt 0.675000 0.500000
vt 0.700000 0.500000
vt 0.725000 0.500000
vt 0.750000 0.500000
vn 0.000000 -1.000000 0.000000
vn 0.000000 -1.000000 0.000000
vn 0.000000 -1.000000 0.000000
vn 0.000000 -1.000000 0.000000
vn 0.000000 -1.000000 0.000000
vn 0.000000 -1.000000 0.000000
vn 0.000000 -1.000000 0.000000
vn 0.000000 -1.000000 0.000000
vn 0.000000 -1.000000 0.000000
vn 0.000000 -1.000000 0.000000
vn 0.000000 -1.000000 0.000000
vn 0.000000 -1.000000 0.000000
vn 0.000000 -1.000000 0.000000
vn 0.000000 -1.000000 0.000000
vn 0.000000 -1.000000 0.000000
vn 0.000000 -1.000000 0.000000
vn 0.000000 -1.000000 0.000000
vn 0.000000 -1.000000 0.000000
vn 0.000000 -1.000000 0.000000
vn 0.000000 -1.000000 0.000000
vn 0.911859 0.284132 -0.296280
vn 0.775673 0.284132 -0.563560
vn 0.000002 1.000000 0.000001
vn 0.775673 0.284132 -0.563560
vn 0.563560 0.284132 -0.775674
vn 0.000002 1.000000 0.000001
vn 0.563560 0.284132 -0.775674
vn 0.296281 0.284132 -0.911859
vn 0.000002 1.000000 0.000001
vn 0.296281 0.284132 -0.911859
vn 0.000000 0.284132 -0.958785
vn 0.000002 1.000000 0.000001
vn 0.000000 0.284132 -0.958785
vn -0.296281 0.284132 -0.911859
vn 0.000002 1.000000 0.000001
vn -0.296281 0.284132 -0.911859
vn -0.563560 0.284132 -0.775673
vn 0.000002 1.000000 0.000001
vn -0.563560 0.284132 -0.775673
vn -0.775674 0.284132 -0.563560
vn 0.000002 1.000000 0.000001
vn -0.775674 0.284132 -0.563560
vn -0.911859 0.284132 -0.296281
vn 0.000002 1.000000 0.000001
vn -0.911859 0.284132 -0.296281
vn -0.958785 0.284132 0.000000
vn 0.000002 1.000000 0.000001
vn -0.958785 0.284132 0.000000
vn -0.911859 0.284132 0.296281
vn 0.000002 1.000000 0.000001
vn -0.911859 0.284132 0.296281
vn -0.775673 0.284132 0.563560
vn 0.000002 1.000000 0.000001
vn -0.775673 0.284132 0.563560
vn -0.563560 0.284132 0.775674
vn 0.000002 1.000000 0.000001
vn -0.563560 0.284132 0.775674
vn -0.296281 0.284132 0.911859
vn 0.000002 1.000000 0.000001
vn -0.296281 0.284132 0.911859
vn 0.000000 0.284132 0.958785
vn 0.000002 1.000000 0.000001
vn 0.000000 0.284132 0.958785
vn 0.296281 0.284132 0.911859
vn 0.000002 1.000000 0.000001
vn 0.296281 0.284132 0.911859
vn 0.563560 0.284132 0.775673
vn 0.000002 1.000000 0.000001
vn 0.563560 0.284132 0.775673
vn 0.775673 0.284132 0.563560
vn 0.000002 1.000000 0.000001
vn 0.775673 0.284132 0.563560
vn 0.911859 0.284132 0.296281
vn 0.000002 1.000000 0.000001
vn 0.911859 0.284132 0.296281
vn 0.958785 0.284132 0.000001
vn 0.000002 1.000000 0.000001
vn 0.958785 0.284132 0.000001
vn 0.911859 0.284132 -0.296280
vn 0.000002 1.000000 0.000001
s 1
g cone:pCone1
f 22/43/81 41/44/82 23/62/83
f 41/44/82 40/45/84 23/62/83
f 40/45/84 39/46/85 23/62/83
f 39/46/85 38/47/86 23/62/83
f 38/47/86 37/48/87 23/62/83
f 37/48/87 36/49/88 23/62/83
f 36/49/88 35/50/89 23/62/83
f 35/50/89 34/51/90 23/62/83
f 34/51/90 33/52/91 23/62/83
f 33/52/91 32/53/92 23/62/83
f 32/53/92 31/54/93 23/62/83
f 31/54/93 30/55/94 23/62/83
f 30/55/94 29/56/95 23/62/83
f 29/56/95 28/57/96 23/62/83
f 28/57/96 27/58/97 23/62/83
f 27/58/97 26/59/98 23/62/83
f 26/59/98 25/60/99 23/62/83
f 25/60/99 24/61/100 23/62/83
s off
f 22/63/101 23/64/102 42/65/103
f 23/64/104 24/66/105 42/65/106
f 24/66/107 25/67/108 42/65/109
f 25/67/110 26/68/111 42/65/112
f 26/68/113 27/69/114 42/65/115
f 27/69/116 28/70/117 42/65/118
f 28/70/119 29/71/120 42/65/121
f 29/71/122 30/72/123 42/65/124
f 30/72/125 31/73/126 42/65/127
f 31/73/128 32/74/129 42/65/130
f 32/74/131 33/75/132 42/65/133
f 33/75/134 34/76/135 42/65/136
f 34/76/137 35/77/138 42/65/139
f 35/77/140 36/78/141 42/65/142
f 36/78/143 37/79/144 42/65/145
f 37/79/146 38/80/147 42/65/148
f 38/80/149 39/81/150 42/65/151
f 39/81/152 40/82/153 42/65/154
f 40/82/155 41/83/156 42/65/157
f 41/83/158 22/84/159 42/65/160
