# This file uses centimeters as units for non-parametric coordinates.

mtllib sampleLevel.mtl
g default
v -20.827059 9.263072 -38.171249
v 25.442591 2.340577 -38.171249
v 2.307764 -9.130803 -10.832366
v 25.442591 -3.011035 -10.832366
v -20.827059 -3.011035 -10.832366
v -9.259650 -3.011037 2.837076
v -20.827059 -3.011035 2.837075
v 2.307764 -9.130805 2.837075
v -9.259650 -3.011035 -10.832366
v 13.875177 -3.011035 2.837076
v 25.442591 -3.011035 2.837075
v 13.875177 -3.011035 -10.832366
v 13.875177 2.340577 -24.501808
v 25.442591 2.340577 -24.501806
v 13.875177 2.340577 -38.171249
v -20.827059 9.263072 -24.501806
v -15.043353 -3.011035 -10.832366
v -15.043353 -3.011035 2.837075
v 8.091470 -3.011035 9.671796
v 8.091470 -3.011035 2.837075
v 25.442591 -3.011035 -17.667086
v 13.875177 -3.011035 -17.667088
v -9.259650 -3.011035 9.671796
v -3.475943 -9.130799 -10.832366
v 25.442591 -3.011035 -3.997645
v 13.875177 -3.011034 -3.997645
v 8.091470 -3.011035 -10.832366
v 8.091470 9.263072 -38.171249
v 8.091470 9.263072 -24.501806
v 8.091470 -3.011035 -17.667088
v 2.307764 -3.011035 -17.667086
v -20.827059 -3.011035 -17.667086
v -9.259650 -3.011035 -17.667088
v -3.475943 -3.011035 -17.667086
v 25.442591 2.847968 -3.997645
v 25.442591 2.847968 -10.832366
v 13.875177 2.847968 -10.832366
v 13.875177 2.847968 -3.997645
v -9.259650 -9.130803 -9.176016
v -13.025480 -9.130803 -9.176016
v -13.025480 -9.130799 1.031926
v -9.259650 -9.130801 1.031927
v -3.475943 -9.130799 2.837075
v -9.261320 9.263072 -24.501806
v -3.477188 9.263072 -24.501806
v 2.308968 9.263072 -24.501806
v -9.259496 9.263072 -38.171249
v -3.475894 9.263072 -38.171249
v 2.300962 9.263072 -38.171249
v -20.827059 -3.011035 9.674995
v -15.043382 -3.011035 9.673364
v 25.442591 -3.011035 9.660253
v 13.877275 -3.011035 9.667875
vt 0.183714 0.625000
vt 0.137786 0.625000
vt 0.183714 0.500000
vt 0.137786 0.500000
vt 0.091857 0.250000
vt 0.066712 0.439228
vt 0.091857 0.500000
vt 0.045929 0.625000
vt 0.046130 0.750000
vt 0.000000 0.625000
vt 0.000000 0.750000
vt 0.045929 0.500000
vt 0.068893 0.625000
vt 0.022964 0.500000
vt 0.000000 0.500000
vt 0.022964 0.250000
vt 0.000000 0.250000
vt 0.022964 0.500000
vt 0.022964 0.250000
vt 0.045929 0.500000
vt 0.045929 0.250000
vt 0.114821 0.250000
vt 0.114821 0.125000
vt 0.137786 0.250000
vt 0.138221 0.122180
vt 0.183714 0.250000
vt 0.183714 0.750000
vt 0.137786 0.750000
vt 0.048897 1.000000
vt 0.000000 1.000000
vt 0.045929 0.250000
vt 0.045929 0.125000
vt 0.068893 0.250000
vt 0.183714 0.375000
vt 0.183714 0.500000
vt 0.137786 0.375000
vt 0.137786 0.500000
vt 0.137786 0.375000
vt 0.183714 0.375000
vt 0.114821 0.500000
vt 0.137786 1.000000
vt 0.183714 1.000000
vt 0.114821 1.000000
vt 0.114821 0.750000
vt 0.091857 0.625000
vt 0.114821 0.625000
vt 0.068968 0.750000
vt 0.091700 0.750000
vt 0.070166 1.000000
vt 0.092785 1.000000
vt 0.023416 0.123291
vt 0.000000 0.121513
vt 0.183714 0.116697
vn 0.000000 1.000000 0.000000
vn 0.000000 1.000000 0.000000
vn 0.000000 1.000000 0.000000
vn 0.000000 1.000000 0.000000
vn 0.000000 1.000000 0.000000
vn 0.000000 1.000000 0.000000
vn 0.000001 1.000000 0.000000
vn 0.000001 1.000000 0.000000
vn 0.000001 1.000000 0.000000
vn 0.000000 0.486501 0.873680
vn 0.000000 0.486501 0.873680
vn 0.000000 0.486500 0.873680
vn 0.000000 0.486501 0.873680
vn 0.000000 0.486501 0.873680
vn 0.000000 0.486501 0.873680
vn 0.000000 1.000000 0.000000
vn 0.000000 1.000000 0.000000
vn 0.000000 1.000000 0.000000
vn 0.619069 0.585074 0.523872
vn 0.619069 0.585074 0.523872
vn 0.619069 0.585074 0.523872
vn 0.000000 1.000000 0.000000
vn 0.000000 1.000000 0.000000
vn 0.000000 1.000000 0.000000
vn 0.000000 1.000000 0.000000
vn 0.000000 1.000000 0.000000
vn 0.000000 1.000000 0.000000
vn 0.000000 1.000000 -0.000000
vn 0.000000 1.000000 -0.000000
vn 0.000000 1.000000 -0.000000
vn 0.000001 1.000000 -0.000000
vn 0.000001 1.000000 -0.000000
vn 0.000001 1.000000 -0.000000
vn 0.000000 1.000000 0.000000
vn 0.000000 1.000000 0.000000
vn 0.000000 1.000000 0.000000
vn 0.000000 1.000000 0.000000
vn 0.000000 1.000000 0.000000
vn 0.000000 1.000000 0.000000
vn 0.000000 0.787354 0.616501
vn 0.000000 0.787354 0.616501
vn 0.000000 0.787354 0.616501
vn -0.000000 0.787354 0.616501
vn -0.000000 0.787354 0.616501
vn -0.000000 0.787354 0.616501
vn 0.000000 1.000000 0.000000
vn 0.000000 1.000000 0.000000
vn 0.000000 1.000000 0.000000
vn 0.000000 1.000000 0.000000
vn 0.000000 1.000000 0.000000
vn 0.000000 1.000000 0.000000
vn 0.000000 1.000000 -0.000000
vn 0.000000 1.000000 -0.000000
vn 0.000000 1.000000 -0.000000
vn -0.000001 1.000000 0.000000
vn -0.000001 1.000000 0.000000
vn -0.000001 1.000000 0.000000
vn -0.000000 1.000000 -0.000000
vn -0.000000 1.000000 -0.000000
vn -0.000000 1.000000 -0.000000
vn -0.000000 1.000000 0.000000
vn -0.000000 1.000000 0.000000
vn -0.000000 1.000000 0.000000
vn 0.000000 1.000000 0.000000
vn 0.000000 1.000000 0.000000
vn 0.000000 1.000000 0.000000
vn 0.000000 1.000000 0.000000
vn 0.000000 1.000000 0.000000
vn 0.000000 1.000000 0.000000
vn 0.000000 1.000000 0.000000
vn 0.000000 1.000000 0.000000
vn 0.000000 1.000000 0.000000
vn -0.726780 0.686870 0.000000
vn -0.726780 0.686870 0.000000
vn -0.726780 0.686870 0.000000
vn -0.726781 0.686870 0.000000
vn -0.726781 0.686870 0.000000
vn -0.726781 0.686870 0.000000
vn 0.000000 1.000000 0.000000
vn 0.000000 1.000000 0.000000
vn 0.000000 1.000000 0.000000
vn -0.000000 1.000000 -0.000000
vn -0.000000 1.000000 -0.000000
vn -0.000000 1.000000 -0.000000
vn -0.000000 1.000000 0.000000
vn -0.000000 1.000000 0.000000
vn -0.000000 1.000000 0.000000
vn 0.000000 1.000000 0.000000
vn 0.000000 1.000000 0.000000
vn 0.000000 1.000000 0.000000
vn 0.000000 1.000000 0.000000
vn 0.000000 1.000000 0.000000
vn 0.000000 1.000000 0.000000
vn 0.767405 0.641163 0.000000
vn 0.767405 0.641163 0.000000
vn 0.767405 0.641163 0.000000
vn 0.767405 0.641163 0.000000
vn 0.767405 0.641163 0.000000
vn 0.767405 0.641163 0.000000
vn -0.619070 0.585074 0.523872
vn -0.619070 0.585074 0.523872
vn -0.619070 0.585074 0.523872
vn 0.000000 1.000000 0.000000
vn 0.000000 1.000000 0.000000
vn 0.000000 1.000000 0.000000
vn 0.000000 1.000000 0.000000
vn 0.000000 1.000000 0.000000
vn 0.000000 1.000000 0.000000
vn 0.000000 1.000000 0.000000
vn 0.000000 1.000000 0.000000
vn 0.000000 1.000000 0.000000
vn 0.000000 0.787354 0.616501
vn 0.000000 0.787354 0.616501
vn 0.000000 0.787354 0.616501
vn 0.503199 0.420420 0.755009
vn 0.503199 0.420420 0.755009
vn 0.503199 0.420420 0.755009
vn 0.000000 1.000000 0.000000
vn 0.000000 1.000000 0.000000
vn 0.000000 1.000000 0.000000
vn 0.000000 1.000000 0.000000
vn 0.000000 1.000000 0.000000
vn 0.000000 1.000000 0.000000
vn 0.000000 1.000000 0.000000
vn 0.000000 1.000000 0.000000
vn 0.000000 1.000000 0.000000
vn 0.000001 0.744998 0.667067
vn 0.000001 0.744998 0.667067
vn 0.000001 0.744998 0.667067
vn 0.000000 0.744998 0.667067
vn 0.000000 0.744998 0.667067
vn 0.000000 0.744998 0.667067
vn 1.000000 0.000000 0.000000
vn 1.000000 0.000000 0.000000
vn 1.000000 0.000000 0.000000
vn 1.000000 0.000000 0.000000
vn 1.000000 0.000000 0.000000
vn 1.000000 0.000000 0.000000
vn 0.000000 0.000000 -1.000000
vn 0.000000 0.000000 -1.000000
vn 0.000000 0.000000 -1.000000
vn 0.000000 0.000000 -1.000000
vn 0.000000 0.000000 -1.000000
vn 0.000000 0.000000 -1.000000
vn -1.000000 0.000000 0.000000
vn -1.000000 0.000000 0.000000
vn -1.000000 0.000000 0.000000
vn -1.000000 0.000000 0.000000
vn -1.000000 0.000000 0.000000
vn -1.000000 0.000000 0.000000
vn 0.000000 0.000000 1.000000
vn 0.000000 0.000000 1.000000
vn 0.000000 0.000000 1.000000
vn 0.000000 0.000000 1.000000
vn 0.000000 0.000000 1.000000
vn 0.000000 0.000000 1.000000
vn 0.000000 0.261256 0.965270
vn 0.000000 0.261256 0.965270
vn 0.000000 0.261256 0.965270
vn 0.000000 0.261256 0.965270
vn 0.000000 0.261256 0.965270
vn 0.000000 0.261256 0.965270
vn 0.949705 0.313146 -0.000000
vn 0.949705 0.313146 -0.000000
vn 0.949705 0.313146 -0.000000
vn 0.949705 0.313147 0.000000
vn 0.949705 0.313147 0.000000
vn 0.949705 0.313147 0.000000
vn 0.000000 0.282919 -0.959144
vn 0.000000 0.282919 -0.959144
vn 0.000000 0.282919 -0.959144
vn 0.000000 0.282919 -0.959144
vn 0.000000 0.282919 -0.959144
vn 0.000000 0.282919 -0.959144
vn 0.266443 0.251812 0.930376
vn 0.266443 0.251812 0.930376
vn 0.266443 0.251812 0.930376
vn 0.000000 0.486501 0.873680
vn 0.000000 0.486501 0.873680
vn 0.000000 0.486501 0.873680
vn 0.000000 0.486501 0.873680
vn 0.000000 0.486501 0.873680
vn 0.000000 0.486501 0.873680
vn 0.000000 0.486501 0.873680
vn 0.000000 0.486501 0.873680
vn 0.000000 0.486501 0.873680
vn 0.000000 0.486501 0.873680
vn 0.000000 0.486501 0.873680
vn 0.000000 0.486501 0.873680
vn 0.000000 0.486501 0.873680
vn 0.000000 0.486501 0.873680
vn 0.000000 0.486501 0.873680
vn 0.000000 0.486501 0.873680
vn 0.000000 0.486501 0.873680
vn 0.000000 0.486501 0.873680
vn 0.000000 1.000000 0.000000
vn 0.000000 1.000000 0.000000
vn 0.000000 1.000000 0.000000
vn 0.000000 1.000000 0.000000
vn 0.000000 1.000000 0.000000
vn 0.000000 1.000000 0.000000
vn 0.000000 1.000000 0.000000
vn 0.000000 1.000000 0.000000
vn 0.000000 1.000000 0.000000
vn 0.000000 1.000000 0.000000
vn 0.000000 1.000000 0.000000
vn 0.000000 1.000000 0.000000
vn 0.000000 1.000000 0.000000
vn 0.000000 1.000000 0.000000
vn 0.000000 1.000000 0.000000
vn 0.000000 1.000000 0.000000
vn 0.000000 1.000000 0.000000
vn 0.000000 1.000000 0.000000
vn 0.000000 1.000000 0.000000
vn 0.000000 1.000000 0.000000
vn 0.000000 1.000000 0.000000
vn 0.000000 1.000000 0.000000
vn 0.000000 1.000000 0.000000
vn 0.000000 1.000000 0.000000
vn 0.000000 1.000000 0.000000
vn 0.000000 1.000000 0.000000
vn 0.000000 1.000000 0.000000
vn 0.000000 1.000000 0.000000
vn 0.000000 1.000000 0.000000
vn 0.000000 1.000000 0.000000
vn 0.000000 1.000000 0.000000
vn 0.000000 1.000000 0.000000
vn 0.000000 1.000000 0.000000
vn 0.000001 1.000000 0.000000
vn 0.000001 1.000000 0.000000
vn 0.000001 1.000000 0.000000
s off
g sampleLevel:pPlane1
usemtl initialShadingGroup
f 21/1/1 22/2/2 4/3/3
f 4/3/4 22/2/5 12/4/6
f 24/6/7 8/5/8 3/7/9
f 33/8/10 44/9/11 32/10/12
f 32/10/13 44/9/14 16/11/15
f 33/8/16 9/12/17 34/13/18
f 34/13/19 9/12/20 24/6/21
f 17/14/22 5/15/23 18/16/24
f 18/16/25 5/15/26 7/17/27
f 40/18/28 41/19/29 39/20/30
f 39/20/31 41/19/32 42/21/33
f 20/22/34 19/23/35 10/24/36
f 10/24/37 53/25/38 11/26/39
f 21/1/40 14/27/41 22/2/42
f 22/2/43 14/27/44 13/28/45
f 44/9/46 47/29/47 16/11/48
f 16/11/49 47/29/50 1/30/51
f 6/31/52 18/16/53 23/32/54
f 24/6/55 39/20/56 43/33/57
f 43/33/58 39/20/59 42/21/60
f 35/34/61 36/35/62 38/36/63
f 38/36/64 36/35/65 37/37/66
f 26/38/67 10/24/68 25/39/69
f 25/39/70 10/24/71 11/26/72
f 27/40/73 3/7/74 20/22/75
f 20/22/76 3/7/77 8/5/78
f 27/40/79 20/22/80 12/4/81
f 12/4/82 20/22/83 26/38/84
f 20/22/85 10/24/86 26/38/87
f 13/28/88 14/27/89 15/41/90
f 15/41/91 14/27/92 2/42/93
f 28/43/94 29/44/95 15/41/96
f 15/41/97 29/44/98 13/28/99
f 3/7/100 27/40/101 31/45/102
f 31/45/103 27/40/104 30/46/105
f 27/40/106 12/4/107 30/46/108
f 30/46/109 12/4/110 22/2/111
f 22/2/112 13/28/113 30/46/114
f 30/46/115 13/28/116 29/44/117
f 32/10/118 5/15/119 33/8/120
f 5/15/121 17/14/122 33/8/123
f 17/14/124 9/12/125 33/8/126
f 24/6/127 3/7/128 34/13/129
f 34/13/130 3/7/131 31/45/132
f 25/39/133 4/3/134 35/34/135
f 35/34/136 4/3/137 36/35/138
f 36/35/139 4/3/140 37/37/141
f 37/37/142 4/3/143 12/4/144
f 12/4/145 26/38/146 37/37/147
f 37/37/148 26/38/149 38/36/150
f 35/34/151 38/36/152 25/39/153
f 25/39/154 38/36/155 26/38/156
f 9/12/157 17/14/158 39/20/159
f 39/20/160 17/14/161 40/18/162
f 40/18/163 17/14/164 41/19/165
f 41/19/166 17/14/167 18/16/168
f 18/16/169 6/31/170 41/19/171
f 41/19/172 6/31/173 42/21/174
f 24/6/175 9/12/176 39/20/177
f 34/13/178 45/47/179 33/8/180
f 33/8/181 45/47/182 44/9/183
f 34/13/184 31/45/185 45/47/186
f 45/47/187 31/45/188 46/48/189
f 46/48/190 31/45/191 29/44/192
f 29/44/193 31/45/194 30/46/195
f 45/47/196 48/49/197 44/9/198
f 44/9/199 48/49/200 47/29/201
f 46/48/202 49/50/203 45/47/204
f 45/47/205 49/50/206 48/49/207
f 29/44/208 28/43/209 46/48/210
f 46/48/211 28/43/212 49/50/213
f 18/16/214 51/51/215 23/32/216
f 51/51/217 7/17/218 50/52/219
f 18/16/220 7/17/221 51/51/222
f 19/23/223 53/25/224 10/24/225
f 11/26/226 53/25/227 52/53/228
f 8/5/229 24/6/230 43/33/231
