# This file uses centimeters as units for non-parametric coordinates.

mtllib pyramid.mtl
g default
v 2.402806 0.001380 2.359187
v 1.141372 0.001380 3.620620
v 2.402806 0.001380 4.882054
v 3.664240 0.001380 3.620621
v 2.402806 1.262814 3.620621
vt 0.500000 0.000000
vt 0.750000 0.250000
vt 0.500000 0.500000
vt 0.250000 0.250000
vt 0.250000 0.500000
vt 0.375000 0.500000
vt 0.500000 1.000000
vt 0.500000 0.500000
vt 0.625000 0.500000
vt 0.750000 0.500000
vn 0.000000 -1.000000 0.000000
vn 0.000000 -1.000000 0.000000
vn 0.000000 -1.000000 0.000000
vn 0.000000 -1.000000 0.000000
vn -0.577350 0.577350 -0.577350
vn -0.577350 0.577350 -0.577350
vn -0.577350 0.577350 -0.577350
vn -0.577350 0.577350 0.577350
vn -0.577350 0.577350 0.577350
vn -0.577350 0.577350 0.577350
vn 0.577350 0.577350 0.577350
vn 0.577350 0.577350 0.577350
vn 0.577350 0.577350 0.577350
vn 0.577350 0.577350 -0.577350
vn 0.577350 0.577350 -0.577350
vn 0.577350 0.577350 -0.577350
s 1
g pyramid:pPyramid1
usemtl initialShadingGroup
f 1/1/1 4/2/2 2/4/3
f 2/4/3 4/2/2 3/3/4
s off
f 1/5/5 2/6/6 5/7/7
f 2/6/8 3/8/9 5/7/10
f 3/8/11 4/9/12 5/7/13
f 4/9/14 1/10/15 5/7/16
g default
v 2.402806 0.001380 2.359187
v 1.141372 0.001380 3.620620
v 2.402806 0.001380 4.882054
v 3.664240 0.001380 3.620621
v 2.402806 1.262814 3.620621
vt 0.500000 0.000000
vt 0.750000 0.250000
vt 0.500000 0.500000
vt 0.250000 0.250000
vt 0.250000 0.500000
vt 0.375000 0.500000
vt 0.500000 1.000000
vt 0.500000 0.500000
vt 0.625000 0.500000
vt 0.750000 0.500000
vn 0.000000 -1.000000 0.000000
vn 0.000000 -1.000000 0.000000
vn 0.000000 -1.000000 0.000000
vn 0.000000 -1.000000 0.000000
vn -0.577350 0.577350 -0.577350
vn -0.577350 0.577350 -0.577350
vn -0.577350 0.577350 -0.577350
vn -0.577350 0.577350 0.577350
vn -0.577350 0.577350 0.577350
vn -0.577350 0.577350 0.577350
vn 0.577350 0.577350 0.577350
vn 0.577350 0.577350 0.577350
vn 0.577350 0.577350 0.577350
vn 0.577350 0.577350 -0.577350
vn 0.577350 0.577350 -0.577350
vn 0.577350 0.577350 -0.577350
s 1
g pyramid:pPyramid1
f 6/11/17 9/12/18 7/14/19
f 7/14/19 9/12/18 8/13/20
s off
f 6/15/21 7/16/22 10/17/23
f 7/16/24 8/18/25 10/17/26
f 8/18/27 9/19/28 10/17/29
f 9/19/30 6/20/31 10/17/32
