# This file uses centimeters as units for non-parametric coordinates.

mtllib Shadow.mtl
g default
v -1.340235 -4.953000 1.008603
v 1.340235 -4.953000 1.008603
v -1.340235 -4.953000 -1.671867
v 1.340235 -4.953000 -1.671867
vt 0.000000 0.000000
vt 1.000000 0.000000
vt 0.000000 1.000000
vt 1.000000 1.000000
vn 0.000000 1.000000 0.000000
vn 0.000000 1.000000 0.000000
vn 0.000000 1.000000 0.000000
vn 0.000000 1.000000 0.000000
s 1
g pasted__pPlane1 group
usemtl lambert3SG
f 1/1/1 2/2/2 3/3/3
f 3/3/3 2/2/2 4/4/4
