# This file uses centimeters as units for non-parametric coordinates.

mtllib tube.mtl
g default
v 3.339616 0.000000 -1.852147
v 3.323208 0.000000 -1.955742
v 3.275591 0.000000 -2.049197
v 3.201425 0.000000 -2.123363
v 3.107970 0.000000 -2.170981
v 3.004374 0.000000 -2.187389
v 2.900779 0.000000 -2.170981
v 2.807324 0.000000 -2.123363
v 2.733158 0.000000 -2.049197
v 2.685540 0.000000 -1.955742
v 2.669132 0.000000 -1.852147
v 2.685540 0.000000 -1.748551
v 2.733158 0.000000 -1.655096
v 2.807324 0.000000 -1.580930
v 2.900779 0.000000 -1.533312
v 3.004374 0.000000 -1.516905
v 3.107970 0.000000 -1.533312
v 3.201425 0.000000 -1.580930
v 3.275591 0.000000 -1.655096
v 3.323208 0.000000 -1.748551
v 3.339616 2.320274 -1.852147
v 3.323208 2.320274 -1.955742
v 3.275591 2.320274 -2.049197
v 3.201425 2.320274 -2.123363
v 3.107970 2.320274 -2.170981
v 3.004374 2.320274 -2.187389
v 2.900779 2.320274 -2.170981
v 2.807324 2.320274 -2.123363
v 2.733158 2.320274 -2.049197
v 2.685540 2.320274 -1.955742
v 2.669132 2.320274 -1.852147
v 2.685540 2.320274 -1.748551
v 2.733158 2.320274 -1.655096
v 2.807324 2.320274 -1.580930
v 2.900779 2.320274 -1.533312
v 3.004374 2.320274 -1.516905
v 3.107970 2.320274 -1.533312
v 3.201425 2.320274 -1.580930
v 3.275591 2.320274 -1.655096
v 3.323208 2.320274 -1.748551
v 3.539616 2.320274 -1.852147
v 3.513420 2.320274 -2.017545
v 3.437394 2.320274 -2.166754
v 3.318982 2.320274 -2.285166
v 3.169773 2.320274 -2.361192
v 3.004374 2.320274 -2.387389
v 2.838975 2.320274 -2.361192
v 2.689767 2.320274 -2.285166
v 2.571354 2.320274 -2.166754
v 2.495329 2.320274 -2.017545
v 2.469132 2.320274 -1.852147
v 2.495329 2.320274 -1.686748
v 2.571354 2.320274 -1.537539
v 2.689767 2.320274 -1.419127
v 2.838975 2.320274 -1.343101
v 3.004374 2.320274 -1.316904
v 3.169773 2.320274 -1.343101
v 3.318982 2.320274 -1.419127
v 3.437394 2.320274 -1.537539
v 3.513420 2.320274 -1.686748
v 3.539616 0.000000 -1.852147
v 3.513420 0.000000 -2.017545
v 3.437394 0.000000 -2.166754
v 3.318982 0.000000 -2.285166
v 3.169773 0.000000 -2.361192
v 3.004374 0.000000 -2.387389
v 2.838975 0.000000 -2.361192
v 2.689767 0.000000 -2.285166
v 2.571354 0.000000 -2.166754
v 2.495329 0.000000 -2.017545
v 2.469132 0.000000 -1.852147
v 2.495329 0.000000 -1.686748
v 2.571354 0.000000 -1.537539
v 2.689767 0.000000 -1.419127
v 2.838975 0.000000 -1.343101
v 3.004374 0.000000 -1.316904
v 3.169773 0.000000 -1.343101
v 3.318982 0.000000 -1.419127
v 3.437394 0.000000 -1.537539
v 3.513420 0.000000 -1.686748
vt 0.050000 1.000000
vt 0.000000 1.000000
vt 0.000000 0.750000
vt 0.050000 0.750000
vt 0.100000 1.000000
vt 0.100000 0.750000
vt 0.150000 1.000000
vt 0.150000 0.750000
vt 0.200000 1.000000
vt 0.200000 0.750000
vt 0.250000 1.000000
vt 0.250000 0.750000
vt 0.300000 1.000000
vt 0.300000 0.750000
vt 0.350000 1.000000
vt 0.350000 0.750000
vt 0.400000 1.000000
vt 0.400000 0.750000
vt 0.450000 1.000000
vt 0.450000 0.750000
vt 0.500000 1.000000
vt 0.500000 0.750000
vt 0.550000 1.000000
vt 0.550000 0.750000
vt 0.600000 1.000000
vt 0.600000 0.750000
vt 0.650000 1.000000
vt 0.650000 0.750000
vt 0.700000 1.000000
vt 0.700000 0.750000
vt 0.750000 1.000000
vt 0.750000 0.750000
vt 0.800000 1.000000
vt 0.800000 0.750000
vt 0.850000 1.000000
vt 0.850000 0.750000
vt 0.900000 1.000000
vt 0.900000 0.750000
vt 0.950000 1.000000
vt 0.950000 0.750000
vt 1.000000 1.000000
vt 1.000000 0.750000
vt 0.000000 0.500000
vt 0.050000 0.500000
vt 0.100000 0.500000
vt 0.150000 0.500000
vt 0.200000 0.500000
vt 0.250000 0.500000
vt 0.300000 0.500000
vt 0.350000 0.500000
vt 0.400000 0.500000
vt 0.450000 0.500000
vt 0.500000 0.500000
vt 0.550000 0.500000
vt 0.600000 0.500000
vt 0.650000 0.500000
vt 0.700000 0.500000
vt 0.750000 0.500000
vt 0.800000 0.500000
vt 0.850000 0.500000
vt 0.900000 0.500000
vt 0.950000 0.500000
vt 1.000000 0.500000
vt 0.000000 0.250000
vt 0.050000 0.250000
vt 0.100000 0.250000
vt 0.150000 0.250000
vt 0.200000 0.250000
vt 0.250000 0.250000
vt 0.300000 0.250000
vt 0.350000 0.250000
vt 0.400000 0.250000
vt 0.450000 0.250000
vt 0.500000 0.250000
vt 0.550000 0.250000
vt 0.600000 0.250000
vt 0.650000 0.250000
vt 0.700000 0.250000
vt 0.750000 0.250000
vt 0.800000 0.250000
vt 0.850000 0.250000
vt 0.900000 0.250000
vt 0.950000 0.250000
vt 1.000000 0.250000
vt 0.000000 0.000000
vt 0.050000 0.000000
vt 0.100000 0.000000
vt 0.150000 0.000000
vt 0.200000 0.000000
vt 0.250000 0.000000
vt 0.300000 0.000000
vt 0.350000 0.000000
vt 0.400000 0.000000
vt 0.450000 0.000000
vt 0.500000 0.000000
vt 0.550000 0.000000
vt 0.600000 0.000000
vt 0.650000 0.000000
vt 0.700000 0.000000
vt 0.750000 0.000000
vt 0.800000 0.000000
vt 0.850000 0.000000
vt 0.900000 0.000000
vt 0.950000 0.000000
vt 1.000000 0.000000
vn -0.951057 0.000000 0.309017
vn -1.000000 0.000000 0.000000
vn -0.951057 0.000000 0.309017
vn -1.000000 0.000000 0.000000
vn -0.809017 0.000000 0.587785
vn -0.951057 0.000000 0.309017
vn -0.809017 0.000000 0.587785
vn -0.951057 0.000000 0.309017
vn -0.587785 0.000000 0.809017
vn -0.809017 0.000000 0.587785
vn -0.587785 0.000000 0.809017
vn -0.809017 0.000000 0.587785
vn -0.309017 0.000000 0.951057
vn -0.587785 0.000000 0.809017
vn -0.309017 0.000000 0.951057
vn -0.587785 0.000000 0.809017
vn 0.000000 0.000000 1.000000
vn -0.309017 0.000000 0.951057
vn 0.000000 0.000000 1.000000
vn -0.309017 0.000000 0.951057
vn 0.309017 0.000000 0.951057
vn 0.000000 0.000000 1.000000
vn 0.309017 0.000000 0.951057
vn 0.000000 0.000000 1.000000
vn 0.587785 0.000000 0.809017
vn 0.309017 0.000000 0.951057
vn 0.587785 0.000000 0.809017
vn 0.309017 0.000000 0.951057
vn 0.809017 0.000000 0.587785
vn 0.587785 0.000000 0.809017
vn 0.809017 0.000000 0.587785
vn 0.587785 0.000000 0.809017
vn 0.951057 0.000000 0.309017
vn 0.809017 0.000000 0.587785
vn 0.951057 0.000000 0.309017
vn 0.809017 0.000000 0.587785
vn 1.000000 0.000000 0.000000
vn 0.951057 0.000000 0.309017
vn 1.000000 0.000000 0.000000
vn 0.951057 0.000000 0.309017
vn 0.951057 0.000000 -0.309017
vn 1.000000 0.000000 0.000000
vn 0.951057 0.000000 -0.309017
vn 1.000000 0.000000 0.000000
vn 0.809017 0.000000 -0.587785
vn 0.951057 0.000000 -0.309017
vn 0.809017 0.000000 -0.587785
vn 0.951057 0.000000 -0.309017
vn 0.587785 0.000000 -0.809017
vn 0.809017 0.000000 -0.587785
vn 0.587785 0.000000 -0.809017
vn 0.809017 0.000000 -0.587785
vn 0.309017 0.000000 -0.951057
vn 0.587785 0.000000 -0.809017
vn 0.309017 0.000000 -0.951057
vn 0.587785 0.000000 -0.809017
vn -0.000000 0.000000 -1.000000
vn 0.309017 0.000000 -0.951057
vn -0.000000 0.000000 -1.000000
vn 0.309017 0.000000 -0.951057
vn -0.309017 0.000000 -0.951057
vn -0.000000 0.000000 -1.000000
vn -0.309017 0.000000 -0.951057
vn -0.000000 0.000000 -1.000000
vn -0.587785 0.000000 -0.809017
vn -0.309017 0.000000 -0.951057
vn -0.587785 0.000000 -0.809017
vn -0.309017 0.000000 -0.951057
vn -0.809017 0.000000 -0.587785
vn -0.587785 0.000000 -0.809017
vn -0.809017 0.000000 -0.587785
vn -0.587785 0.000000 -0.809017
vn -0.951057 0.000000 -0.309017
vn -0.809017 0.000000 -0.587785
vn -0.951057 0.000000 -0.309017
vn -0.809017 0.000000 -0.587785
vn -1.000000 0.000000 0.000000
vn -0.951057 0.000000 -0.309017
vn -1.000000 0.000000 0.000000
vn -0.951057 0.000000 -0.309017
vn 0.000000 1.000000 0.000000
vn 0.000000 1.000000 0.000000
vn 0.000000 1.000000 0.000000
vn 0.000000 1.000000 0.000000
vn 0.000000 1.000000 0.000000
vn 0.000000 1.000000 0.000000
vn 0.000000 1.000000 0.000000
vn 0.000000 1.000000 0.000000
vn 0.000000 1.000000 0.000000
vn 0.000000 1.000000 0.000000
vn 0.000000 1.000000 0.000000
vn 0.000000 1.000000 0.000000
vn 0.000000 1.000000 0.000000
vn 0.000000 1.000000 0.000000
vn 0.000000 1.000000 0.000000
vn 0.000000 1.000000 0.000000
vn 0.000000 1.000000 0.000000
vn 0.000000 1.000000 0.000000
vn 0.000000 1.000000 0.000000
vn 0.000000 1.000000 0.000000
vn 0.000000 1.000000 0.000000
vn 0.000000 1.000000 0.000000
vn 0.000000 1.000000 0.000000
vn 0.000000 1.000000 0.000000
vn 0.000000 1.000000 0.000000
vn 0.000000 1.000000 0.000000
vn 0.000000 1.000000 0.000000
vn 0.000000 1.000000 0.000000
vn 0.000000 1.000000 0.000000
vn 0.000000 1.000000 0.000000
vn 0.000000 1.000000 0.000000
vn 0.000000 1.000000 0.000000
vn 0.000000 1.000000 0.000000
vn 0.000000 1.000000 0.000000
vn 0.000000 1.000000 0.000000
vn 0.000000 1.000000 0.000000
vn 0.000000 1.000000 0.000000
vn 0.000000 1.000000 0.000000
vn 0.000000 1.000000 0.000000
vn 0.000000 1.000000 0.000000
vn 0.000000 1.000000 0.000000
vn 0.000000 1.000000 0.000000
vn 0.000000 1.000000 0.000000
vn 0.000000 1.000000 0.000000
vn 0.000000 1.000000 0.000000
vn 0.000000 1.000000 0.000000
vn 0.000000 1.000000 0.000000
vn 0.000000 1.000000 0.000000
vn 0.000000 1.000000 0.000000
vn 0.000000 1.000000 0.000000
vn 0.000000 1.000000 0.000000
vn 0.000000 1.000000 0.000000
vn 0.000000 1.000000 0.000000
vn 0.000000 1.000000 0.000000
vn 0.000000 1.000000 0.000000
vn 0.000000 1.000000 0.000000
vn 0.000000 1.000000 0.000000
vn 0.000000 1.000000 0.000000
vn 0.000000 1.000000 0.000000
vn 0.000000 1.000000 0.000000
vn 0.000000 1.000000 0.000000
vn 0.000000 1.000000 0.000000
vn 0.000000 1.000000 0.000000
vn 0.000000 1.000000 0.000000
vn 0.000000 1.000000 0.000000
vn 0.000000 1.000000 0.000000
vn 0.000000 1.000000 0.000000
vn 0.000000 1.000000 0.000000
vn 0.000000 1.000000 0.000000
vn 0.000000 1.000000 0.000000
vn 0.000000 1.000000 0.000000
vn 0.000000 1.000000 0.000000
vn 0.000000 1.000000 0.000000
vn 0.000000 1.000000 0.000000
vn 0.000000 1.000000 0.000000
vn 0.000000 1.000000 0.000000
vn 0.000000 1.000000 0.000000
vn 0.000000 1.000000 0.000000
vn 0.000000 1.000000 0.000000
vn 0.000000 1.000000 0.000000
vn 0.951057 0.000000 -0.309017
vn 1.000000 0.000000 -0.000001
vn 0.951057 0.000000 -0.309017
vn 1.000000 0.000000 -0.000001
vn 0.809017 0.000000 -0.587785
vn 0.951057 0.000000 -0.309017
vn 0.809017 0.000000 -0.587785
vn 0.951057 0.000000 -0.309017
vn 0.587785 0.000000 -0.809017
vn 0.809017 0.000000 -0.587785
vn 0.587785 0.000000 -0.809017
vn 0.809017 0.000000 -0.587785
vn 0.309017 0.000000 -0.951057
vn 0.587785 0.000000 -0.809017
vn 0.309017 0.000000 -0.951057
vn 0.587785 0.000000 -0.809017
vn 0.000000 0.000000 -1.000000
vn 0.309017 0.000000 -0.951057
vn 0.000000 0.000000 -1.000000
vn 0.309017 0.000000 -0.951057
vn -0.309017 0.000000 -0.951057
vn 0.000000 0.000000 -1.000000
vn -0.309017 0.000000 -0.951057
vn 0.000000 0.000000 -1.000000
vn -0.587785 0.000000 -0.809017
vn -0.309017 0.000000 -0.951057
vn -0.587785 0.000000 -0.809017
vn -0.309017 0.000000 -0.951057
vn -0.809017 0.000000 -0.587785
vn -0.587785 0.000000 -0.809017
vn -0.809017 0.000000 -0.587785
vn -0.587785 0.000000 -0.809017
vn -0.951057 0.000000 -0.309017
vn -0.809017 0.000000 -0.587785
vn -0.951057 0.000000 -0.309017
vn -0.809017 0.000000 -0.587785
vn -1.000000 0.000000 0.000000
vn -0.951057 0.000000 -0.309017
vn -1.000000 0.000000 0.000000
vn -0.951057 0.000000 -0.309017
vn -0.951057 0.000000 0.309017
vn -1.000000 0.000000 0.000000
vn -0.951057 0.000000 0.309017
vn -1.000000 0.000000 0.000000
vn -0.809017 0.000000 0.587785
vn -0.951057 0.000000 0.309017
vn -0.809017 0.000000 0.587785
vn -0.951057 0.000000 0.309017
vn -0.587785 0.000000 0.809017
vn -0.809017 0.000000 0.587785
vn -0.587785 0.000000 0.809017
vn -0.809017 0.000000 0.587785
vn -0.309017 0.000000 0.951057
vn -0.587785 0.000000 0.809017
vn -0.309017 0.000000 0.951057
vn -0.587785 0.000000 0.809017
vn 0.000000 0.000000 1.000000
vn -0.309017 0.000000 0.951057
vn 0.000000 0.000000 1.000000
vn -0.309017 0.000000 0.951057
vn 0.309017 0.000000 0.951057
vn 0.000000 0.000000 1.000000
vn 0.309017 0.000000 0.951057
vn 0.000000 0.000000 1.000000
vn 0.587785 0.000000 0.809017
vn 0.309017 0.000000 0.951057
vn 0.587785 0.000000 0.809017
vn 0.309017 0.000000 0.951057
vn 0.809017 0.000000 0.587785
vn 0.587785 0.000000 0.809017
vn 0.809017 0.000000 0.587785
vn 0.587785 0.000000 0.809017
vn 0.951057 -0.000000 0.309016
vn 0.809017 0.000000 0.587785
vn 0.951057 -0.000000 0.309016
vn 0.809017 0.000000 0.587785
vn 1.000000 0.000000 -0.000001
vn 0.951057 -0.000000 0.309016
vn 1.000000 0.000000 -0.000001
vn 0.951057 -0.000000 0.309016
vn 0.000000 -1.000000 0.000000
vn 0.000000 -1.000000 0.000000
vn 0.000000 -1.000000 0.000000
vn 0.000000 -1.000000 0.000000
vn 0.000000 -1.000000 0.000000
vn 0.000000 -1.000000 0.000000
vn 0.000000 -1.000000 0.000000
vn 0.000000 -1.000000 0.000000
vn 0.000000 -1.000000 0.000000
vn 0.000000 -1.000000 0.000000
vn 0.000000 -1.000000 0.000000
vn 0.000000 -1.000000 0.000000
vn 0.000000 -1.000000 0.000000
vn 0.000000 -1.000000 0.000000
vn 0.000000 -1.000000 0.000000
vn 0.000000 -1.000000 0.000000
vn 0.000000 -1.000000 0.000000
vn 0.000000 -1.000000 0.000000
vn 0.000000 -1.000000 0.000000
vn 0.000000 -1.000000 0.000000
vn 0.000000 -1.000000 0.000000
vn 0.000000 -1.000000 0.000000
vn 0.000000 -1.000000 0.000000
vn 0.000000 -1.000000 0.000000
vn 0.000000 -1.000000 0.000000
vn 0.000000 -1.000000 0.000000
vn 0.000000 -1.000000 0.000000
vn 0.000000 -1.000000 0.000000
vn 0.000000 -1.000000 0.000000
vn 0.000000 -1.000000 0.000000
vn 0.000000 -1.000000 0.000000
vn 0.000000 -1.000000 0.000000
vn 0.000000 -1.000000 -0.000001
vn 0.000000 -1.000000 0.000000
vn 0.000000 -1.000000 -0.000001
vn 0.000000 -1.000000 0.000000
vn 0.000000 -1.000000 -0.000001
vn 0.000000 -1.000000 -0.000001
vn 0.000000 -1.000000 -0.000001
vn 0.000000 -1.000000 -0.000001
vn 0.000000 -1.000000 0.000000
vn 0.000000 -1.000000 -0.000001
vn 0.000000 -1.000000 0.000000
vn 0.000000 -1.000000 -0.000001
vn 0.000000 -1.000000 0.000000
vn 0.000000 -1.000000 0.000000
vn 0.000000 -1.000000 0.000000
vn 0.000000 -1.000000 0.000000
vn 0.000000 -1.000000 0.000000
vn 0.000000 -1.000000 0.000000
vn 0.000000 -1.000000 0.000000
vn 0.000000 -1.000000 0.000000
vn 0.000000 -1.000000 0.000000
vn 0.000000 -1.000000 0.000000
vn 0.000000 -1.000000 0.000000
vn 0.000000 -1.000000 0.000000
vn 0.000000 -1.000000 0.000000
vn 0.000000 -1.000000 0.000000
vn 0.000000 -1.000000 0.000000
vn 0.000000 -1.000000 0.000000
vn 0.000000 -1.000000 0.000000
vn 0.000000 -1.000000 0.000000
vn 0.000000 -1.000000 0.000000
vn 0.000000 -1.000000 0.000000
vn 0.000000 -1.000000 0.000000
vn 0.000000 -1.000000 0.000000
vn 0.000000 -1.000000 0.000000
vn 0.000000 -1.000000 0.000000
vn 0.000000 -1.000000 0.000000
vn 0.000000 -1.000000 0.000000
vn 0.000000 -1.000000 0.000000
vn 0.000000 -1.000000 0.000000
vn 0.000000 -1.000000 0.000000
vn 0.000000 -1.000000 0.000000
vn 0.000000 -1.000000 0.000000
vn 0.000000 -1.000000 0.000000
vn 0.000000 -1.000000 0.000000
vn 0.000000 -1.000000 0.000000
vn 0.000000 -1.000000 0.000000
vn 0.000000 -1.000000 0.000000
s 1
g tube:pPipe1
usemtl initialShadingGroup
f 2/1/1 1/2/2 22/4/3
f 22/4/3 1/2/2 21/3/4
s 2
f 3/5/5 2/1/6 23/6/7
f 23/6/7 2/1/6 22/4/8
s 3
f 4/7/9 3/5/10 24/8/11
f 24/8/11 3/5/10 23/6/12
s 4
f 5/9/13 4/7/14 25/10/15
f 25/10/15 4/7/14 24/8/16
s 5
f 6/11/17 5/9/18 26/12/19
f 26/12/19 5/9/18 25/10/20
s 6
f 7/13/21 6/11/22 27/14/23
f 27/14/23 6/11/22 26/12/24
s 7
f 8/15/25 7/13/26 28/16/27
f 28/16/27 7/13/26 27/14/28
s 8
f 9/17/29 8/15/30 29/18/31
f 29/18/31 8/15/30 28/16/32
s 9
f 10/19/33 9/17/34 30/20/35
f 30/20/35 9/17/34 29/18/36
s 10
f 11/21/37 10/19/38 31/22/39
f 31/22/39 10/19/38 30/20/40
s 11
f 12/23/41 11/21/42 32/24/43
f 32/24/43 11/21/42 31/22/44
s 12
f 13/25/45 12/23/46 33/26/47
f 33/26/47 12/23/46 32/24/48
s 13
f 14/27/49 13/25/50 34/28/51
f 34/28/51 13/25/50 33/26/52
s 14
f 15/29/53 14/27/54 35/30/55
f 35/30/55 14/27/54 34/28/56
s 15
f 16/31/57 15/29/58 36/32/59
f 36/32/59 15/29/58 35/30/60
s 16
f 17/33/61 16/31/62 37/34/63
f 37/34/63 16/31/62 36/32/64
s 17
f 18/35/65 17/33/66 38/36/67
f 38/36/67 17/33/66 37/34/68
s 18
f 19/37/69 18/35/70 39/38/71
f 39/38/71 18/35/70 38/36/72
s 19
f 20/39/73 19/37/74 40/40/75
f 40/40/75 19/37/74 39/38/76
s 20
f 1/41/77 20/39/78 21/42/79
f 21/42/79 20/39/78 40/40/80
s 21
f 22/4/81 21/3/82 42/44/83
f 42/44/83 21/3/82 41/43/84
s 22
f 23/6/85 22/4/86 43/45/87
f 43/45/87 22/4/86 42/44/88
s 23
f 24/8/89 23/6/90 44/46/91
f 44/46/91 23/6/90 43/45/92
s 24
f 25/10/93 24/8/94 45/47/95
f 45/47/95 24/8/94 44/46/96
s 25
f 26/12/97 25/10/98 46/48/99
f 46/48/99 25/10/98 45/47/100
s 26
f 27/14/101 26/12/102 47/49/103
f 47/49/103 26/12/102 46/48/104
s 27
f 28/16/105 27/14/106 48/50/107
f 48/50/107 27/14/106 47/49/108
s 28
f 29/18/109 28/16/110 49/51/111
f 49/51/111 28/16/110 48/50/112
s 29
f 30/20/113 29/18/114 50/52/115
f 50/52/115 29/18/114 49/51/116
s 30
f 31/22/117 30/20/118 51/53/119
f 51/53/119 30/20/118 50/52/120
s 31
f 32/24/121 31/22/122 52/54/123
f 52/54/123 31/22/122 51/53/124
s 32
f 33/26/125 32/24/126 53/55/127
f 53/55/127 32/24/126 52/54/128
s 33
f 34/28/129 33/26/130 54/56/131
f 54/56/131 33/26/130 53/55/132
s 34
f 35/30/133 34/28/134 55/57/135
f 55/57/135 34/28/134 54/56/136
s 35
f 36/32/137 35/30/138 56/58/139
f 56/58/139 35/30/138 55/57/140
s 36
f 37/34/141 36/32/142 57/59/143
f 57/59/143 36/32/142 56/58/144
s 37
f 38/36/145 37/34/146 58/60/147
f 58/60/147 37/34/146 57/59/148
s 38
f 39/38/149 38/36/150 59/61/151
f 59/61/151 38/36/150 58/60/152
s 39
f 40/40/153 39/38/154 60/62/155
f 60/62/155 39/38/154 59/61/156
s 40
f 21/42/157 40/40/158 41/63/159
f 41/63/159 40/40/158 60/62/160
s 41
f 42/44/161 41/43/162 62/65/163
f 62/65/163 41/43/162 61/64/164
s 42
f 43/45/165 42/44/166 63/66/167
f 63/66/167 42/44/166 62/65/168
s 43
f 44/46/169 43/45/170 64/67/171
f 64/67/171 43/45/170 63/66/172
s 44
f 45/47/173 44/46/174 65/68/175
f 65/68/175 44/46/174 64/67/176
s 45
f 46/48/177 45/47/178 66/69/179
f 66/69/179 45/47/178 65/68/180
s 46
f 47/49/181 46/48/182 67/70/183
f 67/70/183 46/48/182 66/69/184
s 47
f 48/50/185 47/49/186 68/71/187
f 68/71/187 47/49/186 67/70/188
s 48
f 49/51/189 48/50/190 69/72/191
f 69/72/191 48/50/190 68/71/192
s 49
f 50/52/193 49/51/194 70/73/195
f 70/73/195 49/51/194 69/72/196
s 50
f 51/53/197 50/52/198 71/74/199
f 71/74/199 50/52/198 70/73/200
s 51
f 52/54/201 51/53/202 72/75/203
f 72/75/203 51/53/202 71/74/204
s 52
f 53/55/205 52/54/206 73/76/207
f 73/76/207 52/54/206 72/75/208
s 53
f 54/56/209 53/55/210 74/77/211
f 74/77/211 53/55/210 73/76/212
s 54
f 55/57/213 54/56/214 75/78/215
f 75/78/215 54/56/214 74/77/216
s 55
f 56/58/217 55/57/218 76/79/219
f 76/79/219 55/57/218 75/78/220
s 56
f 57/59/221 56/58/222 77/80/223
f 77/80/223 56/58/222 76/79/224
s 57
f 58/60/225 57/59/226 78/81/227
f 78/81/227 57/59/226 77/80/228
s 58
f 59/61/229 58/60/230 79/82/231
f 79/82/231 58/60/230 78/81/232
s 59
f 60/62/233 59/61/234 80/83/235
f 80/83/235 59/61/234 79/82/236
s 60
f 41/63/237 60/62/238 61/84/239
f 61/84/239 60/62/238 80/83/240
s 61
f 62/65/241 61/64/242 2/86/243
f 2/86/243 61/64/242 1/85/244
s 62
f 63/66/245 62/65/246 3/87/247
f 3/87/247 62/65/246 2/86/248
s 63
f 64/67/249 63/66/250 4/88/251
f 4/88/251 63/66/250 3/87/252
s 64
f 65/68/253 64/67/254 5/89/255
f 5/89/255 64/67/254 4/88/256
s 65
f 66/69/257 65/68/258 6/90/259
f 6/90/259 65/68/258 5/89/260
s 66
f 67/70/261 66/69/262 7/91/263
f 7/91/263 66/69/262 6/90/264
s 67
f 68/71/265 67/70/266 8/92/267
f 8/92/267 67/70/266 7/91/268
s 68
f 69/72/269 68/71/270 9/93/271
f 9/93/271 68/71/270 8/92/272
s 69
f 70/73/273 69/72/274 10/94/275
f 10/94/275 69/72/274 9/93/276
s 70
f 71/74/277 70/73/278 11/95/279
f 11/95/279 70/73/278 10/94/280
s 71
f 72/75/281 71/74/282 12/96/283
f 12/96/283 71/74/282 11/95/284
s 72
f 73/76/285 72/75/286 13/97/287
f 13/97/287 72/75/286 12/96/288
s 73
f 74/77/289 73/76/290 14/98/291
f 14/98/291 73/76/290 13/97/292
s 74
f 75/78/293 74/77/294 15/99/295
f 15/99/295 74/77/294 14/98/296
s 75
f 76/79/297 75/78/298 16/100/299
f 16/100/299 75/78/298 15/99/300
s 76
f 77/80/301 76/79/302 17/101/303
f 17/101/303 76/79/302 16/100/304
s 77
f 78/81/305 77/80/306 18/102/307
f 18/102/307 77/80/306 17/101/308
s 78
f 79/82/309 78/81/310 19/103/311
f 19/103/311 78/81/310 18/102/312
s 79
f 80/83/313 79/82/314 20/104/315
f 20/104/315 79/82/314 19/103/316
s 80
f 61/84/317 80/83/318 1/105/319
f 1/105/319 80/83/318 20/104/320
